<mxfile host="Electron" modified="2024-03-26T16:21:16.771Z" agent="Mozilla/5.0 (Windows NT 10.0; Win64; x64) AppleWebKit/537.36 (KHTML, like Gecko) draw.io/23.1.5 Chrome/120.0.6099.109 Electron/28.1.0 Safari/537.36" etag="Jn-4ii5EO26pVljEnkWI" version="23.1.5" type="device">
  <diagram name="Страница — 1" id="pk8m195kD3VRs2KxVtCE">
    <mxGraphModel dx="874" dy="572" grid="1" gridSize="10" guides="1" tooltips="1" connect="1" arrows="1" fold="1" page="1" pageScale="1" pageWidth="827" pageHeight="1169" math="0" shadow="0">
      <root>
        <mxCell id="0" />
        <mxCell id="1" parent="0" />
        <mxCell id="a4iyUmEdROwli7vBE6TL-8" style="edgeStyle=orthogonalEdgeStyle;rounded=0;orthogonalLoop=1;jettySize=auto;html=1;exitX=0.5;exitY=1;exitDx=0;exitDy=0;entryX=0.5;entryY=0;entryDx=0;entryDy=0;" edge="1" parent="1" source="a4iyUmEdROwli7vBE6TL-1" target="a4iyUmEdROwli7vBE6TL-2">
          <mxGeometry relative="1" as="geometry" />
        </mxCell>
        <mxCell id="a4iyUmEdROwli7vBE6TL-1" value="Ввод a&lt;br&gt;Ввод b" style="rounded=0;whiteSpace=wrap;html=1;" vertex="1" parent="1">
          <mxGeometry x="280" y="80" width="120" height="60" as="geometry" />
        </mxCell>
        <mxCell id="a4iyUmEdROwli7vBE6TL-5" style="edgeStyle=orthogonalEdgeStyle;rounded=0;orthogonalLoop=1;jettySize=auto;html=1;exitX=1;exitY=0.5;exitDx=0;exitDy=0;entryX=0.5;entryY=0;entryDx=0;entryDy=0;" edge="1" parent="1" source="a4iyUmEdROwli7vBE6TL-2" target="a4iyUmEdROwli7vBE6TL-4">
          <mxGeometry relative="1" as="geometry" />
        </mxCell>
        <mxCell id="a4iyUmEdROwli7vBE6TL-30" style="edgeStyle=orthogonalEdgeStyle;rounded=0;orthogonalLoop=1;jettySize=auto;html=1;exitX=0;exitY=0.5;exitDx=0;exitDy=0;entryX=0.5;entryY=0;entryDx=0;entryDy=0;" edge="1" parent="1" source="a4iyUmEdROwli7vBE6TL-2" target="a4iyUmEdROwli7vBE6TL-29">
          <mxGeometry relative="1" as="geometry" />
        </mxCell>
        <mxCell id="a4iyUmEdROwli7vBE6TL-2" value="а не пустое?" style="rhombus;whiteSpace=wrap;html=1;" vertex="1" parent="1">
          <mxGeometry x="260" y="180" width="160" height="100" as="geometry" />
        </mxCell>
        <mxCell id="a4iyUmEdROwli7vBE6TL-7" style="edgeStyle=orthogonalEdgeStyle;rounded=0;orthogonalLoop=1;jettySize=auto;html=1;exitX=1;exitY=0.5;exitDx=0;exitDy=0;entryX=0.5;entryY=0;entryDx=0;entryDy=0;" edge="1" parent="1" source="a4iyUmEdROwli7vBE6TL-4" target="a4iyUmEdROwli7vBE6TL-6">
          <mxGeometry relative="1" as="geometry" />
        </mxCell>
        <mxCell id="a4iyUmEdROwli7vBE6TL-32" style="edgeStyle=orthogonalEdgeStyle;rounded=0;orthogonalLoop=1;jettySize=auto;html=1;exitX=0;exitY=0.5;exitDx=0;exitDy=0;entryX=0.5;entryY=0;entryDx=0;entryDy=0;" edge="1" parent="1" source="a4iyUmEdROwli7vBE6TL-4" target="a4iyUmEdROwli7vBE6TL-31">
          <mxGeometry relative="1" as="geometry" />
        </mxCell>
        <mxCell id="a4iyUmEdROwli7vBE6TL-4" value="b не пустое?" style="rhombus;whiteSpace=wrap;html=1;" vertex="1" parent="1">
          <mxGeometry x="360" y="280" width="160" height="100" as="geometry" />
        </mxCell>
        <mxCell id="a4iyUmEdROwli7vBE6TL-11" style="edgeStyle=orthogonalEdgeStyle;rounded=0;orthogonalLoop=1;jettySize=auto;html=1;exitX=0.5;exitY=1;exitDx=0;exitDy=0;entryX=0.5;entryY=0;entryDx=0;entryDy=0;" edge="1" parent="1" source="a4iyUmEdROwli7vBE6TL-6" target="a4iyUmEdROwli7vBE6TL-10">
          <mxGeometry relative="1" as="geometry" />
        </mxCell>
        <mxCell id="a4iyUmEdROwli7vBE6TL-6" value="а и b преобразовать в целое число" style="rounded=0;whiteSpace=wrap;html=1;" vertex="1" parent="1">
          <mxGeometry x="480" y="380" width="120" height="60" as="geometry" />
        </mxCell>
        <mxCell id="a4iyUmEdROwli7vBE6TL-15" style="edgeStyle=orthogonalEdgeStyle;rounded=0;orthogonalLoop=1;jettySize=auto;html=1;exitX=0;exitY=0.5;exitDx=0;exitDy=0;entryX=0.5;entryY=0;entryDx=0;entryDy=0;" edge="1" parent="1" source="a4iyUmEdROwli7vBE6TL-10" target="a4iyUmEdROwli7vBE6TL-14">
          <mxGeometry relative="1" as="geometry" />
        </mxCell>
        <mxCell id="a4iyUmEdROwli7vBE6TL-16" style="edgeStyle=orthogonalEdgeStyle;rounded=0;orthogonalLoop=1;jettySize=auto;html=1;exitX=1;exitY=0.5;exitDx=0;exitDy=0;entryX=0.5;entryY=0;entryDx=0;entryDy=0;" edge="1" parent="1" source="a4iyUmEdROwli7vBE6TL-10" target="a4iyUmEdROwli7vBE6TL-13">
          <mxGeometry relative="1" as="geometry" />
        </mxCell>
        <mxCell id="a4iyUmEdROwli7vBE6TL-10" value="а больше или равно 2, b меньше или равно 3?" style="rhombus;whiteSpace=wrap;html=1;" vertex="1" parent="1">
          <mxGeometry x="450" y="490" width="180" height="110" as="geometry" />
        </mxCell>
        <mxCell id="a4iyUmEdROwli7vBE6TL-13" value="Вывод True" style="rounded=0;whiteSpace=wrap;html=1;" vertex="1" parent="1">
          <mxGeometry x="590" y="600" width="120" height="60" as="geometry" />
        </mxCell>
        <mxCell id="a4iyUmEdROwli7vBE6TL-28" style="edgeStyle=orthogonalEdgeStyle;rounded=0;orthogonalLoop=1;jettySize=auto;html=1;exitX=0.5;exitY=1;exitDx=0;exitDy=0;entryX=0.5;entryY=0;entryDx=0;entryDy=0;" edge="1" parent="1" source="a4iyUmEdROwli7vBE6TL-14" target="a4iyUmEdROwli7vBE6TL-26">
          <mxGeometry relative="1" as="geometry" />
        </mxCell>
        <mxCell id="a4iyUmEdROwli7vBE6TL-14" value="Вывод False" style="rounded=0;whiteSpace=wrap;html=1;" vertex="1" parent="1">
          <mxGeometry x="350" y="600" width="120" height="60" as="geometry" />
        </mxCell>
        <mxCell id="a4iyUmEdROwli7vBE6TL-17" value="Да" style="text;html=1;align=center;verticalAlign=middle;whiteSpace=wrap;rounded=0;" vertex="1" parent="1">
          <mxGeometry x="390" y="190" width="60" height="30" as="geometry" />
        </mxCell>
        <mxCell id="a4iyUmEdROwli7vBE6TL-18" value="Да" style="text;html=1;align=center;verticalAlign=middle;whiteSpace=wrap;rounded=0;" vertex="1" parent="1">
          <mxGeometry x="490" y="290" width="60" height="30" as="geometry" />
        </mxCell>
        <mxCell id="a4iyUmEdROwli7vBE6TL-19" value="Да" style="text;html=1;align=center;verticalAlign=middle;whiteSpace=wrap;rounded=0;" vertex="1" parent="1">
          <mxGeometry x="600" y="510" width="60" height="30" as="geometry" />
        </mxCell>
        <mxCell id="a4iyUmEdROwli7vBE6TL-20" value="Нет" style="text;html=1;align=center;verticalAlign=middle;whiteSpace=wrap;rounded=0;" vertex="1" parent="1">
          <mxGeometry x="230" y="190" width="60" height="30" as="geometry" />
        </mxCell>
        <mxCell id="a4iyUmEdROwli7vBE6TL-22" value="Нет" style="text;html=1;align=center;verticalAlign=middle;whiteSpace=wrap;rounded=0;" vertex="1" parent="1">
          <mxGeometry x="330" y="290" width="60" height="30" as="geometry" />
        </mxCell>
        <mxCell id="a4iyUmEdROwli7vBE6TL-23" value="Нет" style="text;html=1;align=center;verticalAlign=middle;whiteSpace=wrap;rounded=0;" vertex="1" parent="1">
          <mxGeometry x="420" y="510" width="60" height="30" as="geometry" />
        </mxCell>
        <mxCell id="a4iyUmEdROwli7vBE6TL-25" style="edgeStyle=orthogonalEdgeStyle;rounded=0;orthogonalLoop=1;jettySize=auto;html=1;exitX=0.5;exitY=1;exitDx=0;exitDy=0;entryX=0.5;entryY=0;entryDx=0;entryDy=0;" edge="1" parent="1" source="a4iyUmEdROwli7vBE6TL-24" target="a4iyUmEdROwli7vBE6TL-1">
          <mxGeometry relative="1" as="geometry" />
        </mxCell>
        <mxCell id="a4iyUmEdROwli7vBE6TL-24" value="Начало" style="rounded=1;whiteSpace=wrap;html=1;arcSize=43;" vertex="1" parent="1">
          <mxGeometry x="305" y="20" width="70" height="40" as="geometry" />
        </mxCell>
        <mxCell id="a4iyUmEdROwli7vBE6TL-26" value="Конец" style="rounded=1;whiteSpace=wrap;html=1;arcSize=43;" vertex="1" parent="1">
          <mxGeometry x="375" y="700" width="70" height="40" as="geometry" />
        </mxCell>
        <mxCell id="a4iyUmEdROwli7vBE6TL-27" style="edgeStyle=orthogonalEdgeStyle;rounded=0;orthogonalLoop=1;jettySize=auto;html=1;exitX=0.5;exitY=1;exitDx=0;exitDy=0;" edge="1" parent="1" source="a4iyUmEdROwli7vBE6TL-26" target="a4iyUmEdROwli7vBE6TL-26">
          <mxGeometry relative="1" as="geometry" />
        </mxCell>
        <mxCell id="a4iyUmEdROwli7vBE6TL-36" style="edgeStyle=orthogonalEdgeStyle;rounded=0;orthogonalLoop=1;jettySize=auto;html=1;exitX=0.5;exitY=1;exitDx=0;exitDy=0;entryX=0.5;entryY=0;entryDx=0;entryDy=0;" edge="1" parent="1" source="a4iyUmEdROwli7vBE6TL-29" target="a4iyUmEdROwli7vBE6TL-35">
          <mxGeometry relative="1" as="geometry" />
        </mxCell>
        <mxCell id="a4iyUmEdROwli7vBE6TL-29" value="Please type A" style="rounded=0;whiteSpace=wrap;html=1;" vertex="1" parent="1">
          <mxGeometry x="130" y="260" width="120" height="60" as="geometry" />
        </mxCell>
        <mxCell id="a4iyUmEdROwli7vBE6TL-34" style="edgeStyle=orthogonalEdgeStyle;rounded=0;orthogonalLoop=1;jettySize=auto;html=1;exitX=0.5;exitY=1;exitDx=0;exitDy=0;entryX=0.5;entryY=0;entryDx=0;entryDy=0;" edge="1" parent="1" source="a4iyUmEdROwli7vBE6TL-31" target="a4iyUmEdROwli7vBE6TL-33">
          <mxGeometry relative="1" as="geometry" />
        </mxCell>
        <mxCell id="a4iyUmEdROwli7vBE6TL-31" value="Please type B" style="rounded=0;whiteSpace=wrap;html=1;" vertex="1" parent="1">
          <mxGeometry x="240" y="360" width="120" height="60" as="geometry" />
        </mxCell>
        <mxCell id="a4iyUmEdROwli7vBE6TL-33" value="Конец" style="rounded=1;whiteSpace=wrap;html=1;arcSize=43;" vertex="1" parent="1">
          <mxGeometry x="265" y="450" width="70" height="40" as="geometry" />
        </mxCell>
        <mxCell id="a4iyUmEdROwli7vBE6TL-35" value="Конец" style="rounded=1;whiteSpace=wrap;html=1;arcSize=43;" vertex="1" parent="1">
          <mxGeometry x="155" y="360" width="70" height="40" as="geometry" />
        </mxCell>
      </root>
    </mxGraphModel>
  </diagram>
</mxfile>
